<svg xmlns="http://www.w3.org/2000/svg" xmlns:xlink="http://www.w3.org/1999/xlink" width="5388.79227" height="4000" viewBox="0 0 5388.79227 4000">
  <defs>
    <linearGradient id="linear-gradient" x1="3225.93366" y1="1969.68664" x2="3280.12838" y2="1969.68664" gradientTransform="matrix(1.1456, 0.32878, -0.32659, 1.13797, 57.07165, -1147.08498)" gradientUnits="userSpaceOnUse">
      <stop offset="0" stop-color="#fff"/>
      <stop offset="1" stop-color="#f9d231"/>
    </linearGradient>
    <linearGradient id="linear-gradient-2" x1="3287.23035" y1="2020.6511" x2="3214.09131" y2="1919.93503" gradientTransform="matrix(1.1456, 0.32878, -0.32659, 1.13797, 57.07165, -1147.08498)" gradientUnits="userSpaceOnUse">
      <stop offset="0" stop-color="#fff" stop-opacity="0"/>
      <stop offset="1" stop-color="#f9ed2c"/>
    </linearGradient>
    <linearGradient id="linear-gradient-3" x1="3276.16605" y1="1966.19879" x2="3316.54873" y2="1966.19879" gradientTransform="matrix(1.1456, 0.32878, -0.32659, 1.13797, 57.07165, -1147.08498)" gradientUnits="userSpaceOnUse">
      <stop offset="0" stop-color="#fff"/>
      <stop offset="1" stop-color="#f9ed2c"/>
    </linearGradient>
    <linearGradient id="linear-gradient-4" x1="3326.76062" y1="2008.69238" x2="3261.51056" y2="1918.83984" xlink:href="#linear-gradient-2"/>
    <linearGradient id="linear-gradient-5" x1="2851.5886" y1="1822.29332" x2="2958.6292" y2="1822.29332" gradientTransform="translate(1459.51876 -1284.31709) rotate(32.77104)" xlink:href="#linear-gradient"/>
    <linearGradient id="linear-gradient-6" x1="2972.61218" y1="1922.79305" x2="2828.36799" y2="1724.1617" gradientTransform="translate(1459.51876 -1284.31709) rotate(32.77104)" xlink:href="#linear-gradient-2"/>
    <linearGradient id="linear-gradient-7" x1="2950.80316" y1="1815.40443" x2="3030.56343" y2="1815.40443" gradientTransform="translate(1459.51876 -1284.31709) rotate(32.77104)" xlink:href="#linear-gradient-3"/>
    <linearGradient id="linear-gradient-8" x1="3050.74918" y1="1899.15297" x2="2922.21875" y2="1722.16025" gradientTransform="translate(1459.51876 -1284.31709) rotate(32.77104)" xlink:href="#linear-gradient-2"/>
    <linearGradient id="linear-gradient-9" x1="2338.11332" y1="2077" x2="2445.15392" y2="2077" gradientTransform="matrix(1, 0, 0, 1, 0, 0)" xlink:href="#linear-gradient"/>
    <linearGradient id="linear-gradient-10" x1="2459.1369" y1="2177.49973" x2="2314.89271" y2="1978.86838" gradientTransform="matrix(1, 0, 0, 1, 0, 0)" xlink:href="#linear-gradient-2"/>
    <linearGradient id="linear-gradient-11" x1="2437.32788" y1="2070.11111" x2="2517.08815" y2="2070.11111" gradientTransform="matrix(1, 0, 0, 1, 0, 0)" xlink:href="#linear-gradient-3"/>
    <linearGradient id="linear-gradient-12" x1="2537.27389" y1="2153.85965" x2="2408.74347" y2="1976.86693" gradientTransform="matrix(1, 0, 0, 1, 0, 0)" xlink:href="#linear-gradient-2"/>
    <linearGradient id="linear-gradient-13" x1="2786.6708" y1="2277.45008" x2="2865.02448" y2="2277.45008" gradientTransform="translate(-374.70453 556.41315) rotate(-10.56949)" xlink:href="#linear-gradient"/>
    <linearGradient id="linear-gradient-14" x1="2875.26001" y1="2351.01585" x2="2769.67331" y2="2205.61777" gradientTransform="translate(-374.70453 556.41315) rotate(-10.56949)" xlink:href="#linear-gradient-2"/>
    <linearGradient id="linear-gradient-15" x1="2859.29582" y1="2272.40742" x2="2917.68031" y2="2272.40742" gradientTransform="translate(-374.70453 556.41315) rotate(-10.56949)" xlink:href="#linear-gradient-3"/>
    <linearGradient id="linear-gradient-16" x1="2932.45627" y1="2333.71132" x2="2838.37204" y2="2204.15271" gradientTransform="translate(-374.70453 556.41315) rotate(-10.56949)" xlink:href="#linear-gradient-2"/>
    <linearGradient id="linear-gradient-17" x1="2538.68132" y1="1704.67935" x2="2608.53915" y2="1704.67935" gradientTransform="translate(-374.70453 556.41315) rotate(-10.56949)" xlink:href="#linear-gradient"/>
    <linearGradient id="linear-gradient-18" x1="2617.66485" y1="1770.26842" x2="2523.52687" y2="1640.63578" gradientTransform="translate(-374.70453 556.41315) rotate(-10.56949)" xlink:href="#linear-gradient-2"/>
    <linearGradient id="linear-gradient-19" x1="2603.43165" y1="1700.18346" x2="2655.48554" y2="1700.18346" gradientTransform="translate(-374.70453 556.41315) rotate(-10.56949)" xlink:href="#linear-gradient-3"/>
    <linearGradient id="linear-gradient-20" x1="2668.65935" y1="1754.84021" x2="2584.77662" y2="1639.32957" gradientTransform="translate(-374.70453 556.41315) rotate(-10.56949)" xlink:href="#linear-gradient-2"/>
  </defs>
  <g id="Layer_3" data-name="Layer 3">
    <polygon points="2092.014 2289 2621.792 2676.556 3471.57 2577 3660.014 2260.556 3428.903 2047.222 3300.903 1972.556 3407.57 1826.778 3350.681 1748.556 3240.459 1777 3147.126 1569 2916.903 1545.889 2860.014 1755.667 2700.014 1567.222 2504.459 1684.556 2582.681 1848.111 2505.442 1869.227 2312.459 1720.111 2173.792 1969 1960.459 2068.556 1914.237 2132.556 2092.014 2289" fill="#4c9442"/>
    <path d="M3183.57,1720.11111c-7.11111,10.66667-199.11111-21.33333-199.11111-21.33333S2931.1256,1969,2874.23671,2040.11111s-7.11111-14.22222-7.11111-14.22222l-220.44444-156.44445-241.77778,71.11112,344.88889,192-362.66667-46.22223-28.44444,120.88889L2127.57,2146.77778l-64,160,448,234.66666,206.22222,160,1063.11111-344.88888-448-384,24.88889-170.66667-71.11111-32Z" fill="#75c048"/>
    <polygon points="3037.792 1858.778 3116.014 1830.333 3332.903 1972.556 3183.57 2132.556 2909.792 1908.556 3037.792 1858.778" fill="#5c9942"/>
    <polygon points="2767.57 1993.889 2845.792 1965.444 3062.681 2107.667 2913.348 2267.667 2639.57 2043.667 2767.57 1993.889" fill="#5c9942"/>
    <polygon points="2227.126 1880.111 2305.348 1851.667 2522.237 1993.889 2372.903 2153.889 2099.126 1929.889 2227.126 1880.111" fill="#5c9942"/>
    <polygon points="3290.237 2217.889 3368.459 2189.444 3585.348 2331.667 3436.014 2491.667 3162.237 2267.667 3290.237 2217.889" fill="#5c9942"/>
    <polygon points="2687.57 2033.889 2172.014 2286.333 2579.126 2601.889 3034.237 2253.444 2687.57 2033.889" fill="#4e853d"/>
    <polygon points="2699.126 2121 2203.126 2366.333 2451.126 2526.333 2859.126 2233 2699.126 2121" fill="#8ec33f"/>
    <polygon points="2202.237 1979.667 1686.681 2232.111 1960.459 2470.333 2415.57 2121.889 2202.237 1979.667" fill="#4e853d"/>
    <path d="M2145.34783,2001c10.66666,7.11111,209.77777,110.22222,209.77777,110.22222L2095.57,2313.88889,1907.1256,2193l20.36155-126.924Z" fill="#8ec33f"/>
    <path d="M3219.1256,2541.44444c-7.11111-24.88888-247.42215-444.47318-247.42215-444.47318l275.8666-46.19348,302.22222,394.66666Z" fill="#4e853d"/>
    <path d="M3315.1256,2625c3.55556-14.22222-277.33333-490.66667-277.33333-490.66667L3247.57,2098.77778l298.66666,391.11111Z" fill="#8ec33f"/>
    <path d="M1232.45894,1236.55556c8,10.66666-50.66667,154.66666-157.33334,162.66666s-122.66666-77.33333-202.66666-66.66666S502.68116,1425,502.68116,1425s137.67791,133.87312,202.66667,192,78.93616,128.002,172.44444,69.33333c0,0-65.77778,261.33334,97.77778,428.44445,0,0,555.55555-260.44445,704.88889,134.22222,0,0,128-100.44444,189.33333-121.77778s69.33333-50.66666,40-80-408-155.55555-338.66667-267.55555c59.84724-96.67631,98.66667-9.77778,205.33334,104.88889s146.66666,135.11111,146.66666,135.11111,106.66667,112,192,2.66666c59.562-76.31377,138.80079-262.50242,165.33334-352,17.91177-60.41863-65.79235-45.99231-128.49908-52.24611-28.88333-2.88056-131.64468-154.54117-154.16759-169.08722-128-82.66667-320-177.77778-381.33333-209.77778s-117.33334-32-130.66667-40S1232.45894,1236.55556,1232.45894,1236.55556Z" fill="#e44425"/>
    <path d="M922.23671,1400.11111s168.88889,36.44445,266.66667-110.22222c0,0-75.827-82.99949,38.22222-155.55552,544.47972-346.38787,596.28319-275.2406,395.55556-635.5556,0,0-208,304-421.33333,364.44445S885.6774,1035.241,858.23671,1145.88889C830.68116,1257,922.23671,1400.11111,922.23671,1400.11111Z" fill="#d1d3d4"/>
    <path d="M1873.34783,793.88889c-8.569-9.25454,23.95422,214.50268-231.11112,275.55555-167.11111,40-156.44444,69.33334-145.77777,112s30.66666,46.22223,30.66666,46.22223L1649.34783,1265s24.88888,7.11111,147.55555-78.22222S2006.68116,937.88889,1873.34783,793.88889Z" fill="#d1d3d4"/>
    <path d="M836.90338,1777c-10.66667,3.55556-192,142.22222-192,142.22222s-113.77778,106.66667-128,184.88889-64,177.77778-64,177.77778l501.33333,184.88889,234.66667-56.88889,14.22222-309.33333-60.44444-103.11112Z" fill="#dd4f28"/>
    <path d="M563.1256,1465s114.66667-96,224-42.66667S912.45894,1537,981.79227,1531.66667s132.44444,16,123.55556,16S848.45894,1665,848.45894,1665L691.1256,1582.33333,563.1256,1465" fill="#7c1819"/>
    <path d="M2244.90338,1641.88889s-174.22222-35.55556-248.88889,17.77778-117.33333,96-156.44444,42.66666-60.44445-56.88889-60.44445-56.88889-78.22222,7.11112-28.44444,117.33334,71.11111,202.66666,71.11111,202.66666l67.55556,92.44445h142.22222L2115.1256,2033l101.33334-167.11111,49.77777-128Z" fill="#c42b27"/>
    <path d="M1092.90338,1553s-124.44444,170.66667,7.11111,224,248.88889,81.77778,291.55556,160l-188.44445,71.11111s-298.66666-60.44444-305.77777-85.33333,0-181.33334,0-181.33334L1092.90338,1553" fill="#7c1819"/>
    <path d="M1404.01449,1426.77778c-12.44444-3.55556-90.66666,10.66666-136.88889,67.55555s-64,74.66667-64,74.66667,136.88889-40.88889,243.55556,10.66667S1512.45894,1697,1610.23671,1665s163.55556-94.22222,177.77778-140.44444l-160,85.33333-160-151.11111-64-32" fill="#c42b27"/>
    <path d="M1461.79227,1961c21.33333-2.66667,221.33333,138.66667,245.33333,173.33333,0,0,178.66667-34.66666,186.66667-37.33333s31.11111,85.33333,31.11111,85.33333l-207.11111,77.33334-120-8Z" fill="#7c1819"/>
    <path d="M864.45894,1894.33333c-8,2.66667-138.66667,45.33334-154.66667,133.33334s69.33333-8,117.33333,152,58.66667,224,58.66667,224l184,21.33333,85.33333-138.66667-8-205.33333Z" fill="#7c1819"/>
    <path d="M1056.45894,1390.33333c-5.33334-13.33333-136-160.88889-66.66667-248C1122.90393,975.09047,1281.34783,959.22222,1504.45894,857,1640.1562,794.828,1643.1256,705,1651.1256,662.33333c0,0,78.22223,142.22223,16,197.33334-75.00672,66.43453-418.66666,234.66666-418.66666,234.66666L1123.1256,1235.66667l88,82.66666-40,58.66667Z" fill="#706e6e"/>
    <path d="M1898.23671,879.22222c7.11112,10.66667,39.11112,90.66667-26.66666,147.55556-86.06783,74.437-236.44445,104.88889-264.88889,167.11111s-19.55556,49.77778-19.55556,49.77778l128,46.22222,60.44445-39.11111,103.11111-158.22222,72.88889-28.44445,7.11111-74.66667Z" fill="#706e6e"/>
    <path d="M3820.01449,2089.88889c-14.22222,14.22222-188.44444,170.66667-188.44444,170.66667L3539.1256,2449l238.22223,124.44444,835.55555-170.66666s199.11111-167.11111,227.55556-199.11111,64-341.33334,64-341.33334l-56.88889-192-117.33334-302.22222-286.66612-141.83767,2.22168-188.829L4275.1256,984.11111l-220.44444,32-426.66667,60.44445L3343.57,1183.22222l-88.88889,220.44445-149.33333,56.88889,92.44444,305.77777,209.77778-7.11111s-70.414,118.67276-78.22222,131.55556,10.66666,128,10.66666,128l238.22222,163.55555Z" fill="#eff8f9"/>
    <path d="M3411.1256,1514.77778s149.33334-53.33334,167.11111,81.77778-21.33333,167.11111-21.33333,167.11111l-288,60.44444s-120-186.66667-117.33333-206.22222,42.66666-117.33333,42.66666-117.33333Z" fill="#8cd4e8"/>
    <path d="M3924.45894,1446.33333,3820.01449,1457s-14.22222,113.77778-92.44444,92.44444-266.66667-67.55555-225.77778-145.77777h0L3592.45894,1457l96,10.66667,120.88889-88.88889s74.66666,21.33333,85.33333,32,29.77778,35.55555,29.77778,35.55555h0" fill="#8cd4e8"/>
    <path d="M3326.38486,1243.963s19.41226-19.2585,24.2963-12.14815c22.45881,32.69632,54.51852,85.92593,162.37037,72.14815h0s20.40074,155.7597,0,138.22223c-76-65.33334-194.66667-8-241.33333-10.66667Z" fill="#8cd4e8"/>
    <path d="M4363.1256,1214.33333c-2.66666-13.33333,11.65864-75.07956-34.07407-106.37037-45.037-30.81481-127.26785-2.78975-164.74074,27.25926-62.81482,50.37037,18.37037,107.25926,20.14815,105.77778s111.4074-73.77778,111.4074-73.77778l47.40741,30.22222,16,16" fill="#8cd4e8"/>
    <path d="M4696.45894,1753c24,10.66667,218.66666,66.66667,72,248s-416,82.66667-560,210.66667,85.33333,56,117.33333,50.66666,346.66667,37.33334,346.66667,37.33334l200-112L4917.79227,1969s10.66667-125.33333-24-176-114.66667-101.33333-114.66667-101.33333Z" fill="#8cd4e8"/>
    <path d="M4805.79227,1697c-41.77778-289.77778-762.66667-258.66667-762.66667-258.66667L4029.79227,1433s168,152,224,234.66667c0,0-282.66667,10.66666-400,154.66666,0,0-50.66667,152-186.66667,186.66667s-309.33333-37.33333-309.33333-37.33333l144,152L3683.1256,2193l389.33334-157.33333,152-130.66667,229.33333-85.33333s82.66667,2.66666,74.66667-16-64-157.33334-64-157.33334l301.33333,64S4807.29642,1707.43306,4805.79227,1697Z" fill="#8cd4e8"/>
    <path d="M4833.34783,1819.66667c-7.11112-21.33334-202.66667-74.66667-288-64l-39.11112,81.77777-39.11111-174.22222,124.44445-17.77778L4681.79227,1669s158.11093,80.38259,158.66667,89.33333-7.11111,61.33334-7.11111,61.33334" fill="#71a3cc"/>
    <path d="M4648.45894,1882.33333s-288,41.33334-310.66667,108l-89.33333-87.11111-1.77778-60.44444,240-1.77778,158.22222,44.44444h0" fill="#71a3cc"/>
    <path d="M1314.23671,1268.55556c3.55556-1.77778,185.77778,24.88888,185.77778,24.88888S1714.33223,1368.90992,1820.90338,1425c118.22222,62.22222,180.44445,224,246.22222,208,26.8166-6.523-21.33333-115.55556-21.33333-115.55556l-170.66667-144-314.66666-117.33333L1364.90338,1217Z" fill="#f6873b"/>
    <path d="M591.1256,1451.66667S665.79227,1354.33333,833.79227,1445s78.66667-70.66667,78.66667-70.66667L655.1256,1347.66667s-61.33333,61.33333-60,66.66666-4,37.33334-4,37.33334" fill="#f57f3b"/>
    <path d="M822.68116,1841c0,7.11111-140.44445,81.77778-248.88889,327.11111l-56.88889-30.22222L723.1256,1803.66667l101.33334-40.88889Z" fill="#f6873b"/>
    <path d="M1047.1256,1662.33333c-.41954-4.19544-32,84,61.33334,118.66667s138.66666,50.66667,129.33333,46.66667S1053.79227,1729,1047.1256,1662.33333Z" fill="#f6873b"/>
    <path d="M1626.23671,520.11111S1656.45894,601,1437.79227,731.66667s-381.33333,208-373.33333,205.33333,437.33333-48,568-330.66667c0,0,59.55555,79.11111,54.22222,196.44445s17.77778,8.88889,17.77778,8.88889L1741.79227,681,1631.60184,542.2373" fill="#fff"/>
    <path d="M1753.64412,1050.48148s128-29.62963,145.77778-132.14815c0,0,1.77778-4.14814,16.59259,7.70371l-3.55555-48s-20.74074-14.22223-25.48148-10.07408-29.037,58.07408-29.037,58.07408Z" fill="#fff"/>
    <path d="M3353.8328,1262.46045s97.2928,87.87288,158.62614,41.20622h0s-53.33334,14.66666-82.66667-41.33334c0,0,258.66667-176,637.33333-176l-12.44444-70.22222-331.55556,22.22222s-360,146.66667-360,154.66667-9.2928,69.46045-9.2928,69.46045" fill="#fff"/>
    <path d="M4459.1256,1294.33333s292.74089,138.51172,343.70378,379.92253-8.29622,9.25586,0,0,21.62956-99.92253,21.62956-99.92253L4747.1256,1393l-144-130.66667s-104-24-114.66666-18.66666S4459.1256,1294.33333,4459.1256,1294.33333Z" fill="#feffff"/>
    <path d="M4118.97746,1203.37037l24.88888-8s.88889-72.59259,107.55556-97.48148c47.63444-11.1147,82.37037,14.22222,106.66667-1.18519,37.31474-23.663,40.88425-23.89505,42.07407-25.48148,1.77778-2.37037-57.48148-74.66666-76.44444-72.88889s-158.22223,27.25926-158.22223,27.25926-46.81481,41.48148-61.62963,59.25926-23.7037,46.22222-23.11111,56.88889,38.22223,61.62963,38.22223,61.62963" fill="#feffff"/>
  </g>
  <g id="Black">
    <path d="M1680.81424,2297.23926a87.1824,87.1824,0,0,1-80.96777-55.11524c-22.14746-56.21-75.03857-155.66015-180.43262-190.168-99.15381-32.46093-224.7876-1.40039-373.416,92.32715a86.72082,86.72082,0,0,1-107.60791-11.5791c-32.791-32.3457-78.47608-84.9668-109.895-151.9541-18.39649-39.22266-29.62061-78.83057-33.35987-117.72363a299.65285,299.65285,0,0,1,17.29834-133.41211c-55.02148-15.59864-132.02246-49.1499-192.92822-120.80371-38.34961-45.1167-66.83935-67.80811-83.98584-78.89844a87.02544,87.02544,0,0,1-14.88769-133.79443c35.0205-35.94825,92.3789-82.14649,166.75439-98.08985,41.51953-8.8999,83.7251-7.40722,125.44824,4.436q.94263.26806,1.88477.54248c-24.4043-72.16358-27.18653-140.46729-8.24951-203.12744,30.34521-100.41016,114.791-180.79883,250.99072-238.93311,221.73291-94.64209,339.416-157.81006,406.19531-218.03125,65.61865-59.17334,85.894-120.019,100.354-211.59912l14.30078-90.57275,62.89453,66.72509c1.7832,1.89161,44.12207,47.09668,82.69043,113,23.05859,39.40137,40.145,78.29737,50.78418,115.6084,13.94775,48.9126,16.88427,95.40625,8.729,138.189-8.01562,42.05029-26.70019,80.46972-55.53369,114.19238-30.71924,35.92773-73.44434,66.86621-126.98828,91.957C1478.35086,1037.835,1405.136,1074.75781,1356.075,1103.875c-52.74463,31.30322-66.58594,47.78369-70.10938,53.46582,2.50732,3.77979,9.87891,12.3291,31.29248,27.97607,13.01367-.42187,40.17774-4.15966,59.07715-6.75976,50.77832-6.98584,108.332-14.90479,147.87158-7.583,70.669,13.08447,291.05176,111.33057,343.80908,139.73828,64.98535,34.99219,121.75342,79.65332,168.72608,132.74268,38.96924,44.04346,62.95752,84.50781,77.29,108.68408.57812.9751,1.17773,1.98682,1.78466,3.0083,24.09864-2.26074,62.72266-5.53076,100.08545,2.43164,68.30909,14.5586,96.02539,57.7461,107.24707,91.4126,10.64893,31.94726,8.55469,71.84082-6.40332,121.96045-11.41894,38.26269-30.62793,82.37158-55.54931,127.5581-40.34033,73.14258-103.522,161.395-153.73633,193.6753-20.60889,13.249-45.41846,19.87793-74.17774,19.87988q-33.00438.00147-72.84716-11.6416a87.05594,87.05594,0,0,1-49.08985,120.123l-201.26123,71.61328A87.2557,87.2557,0,0,1,1680.81424,2297.23926Zm-342.29052-347.71338q57.21753,0,108.89453,16.89844c62.66748,20.51806,117.398,59.25732,162.67041,115.13916,36.36718,44.89062,59.33105,92.208,72.42431,124.87988l195.3545-69.5127a87.07424,87.07424,0,0,1,102.78808-124.415c36.04981,11.26563,64.52979,12.7129,78.13623,3.96387,25.957-16.686,78.09571-78.936,123.59619-161.43457,21.86768-39.64892,38.50586-77.62744,48.1167-109.83056,12.72705-42.64454,9.31934-61.59424,7.26319-67.76221-4.11475-12.34473-12.15967-25.7832-40.625-31.8501-25.13575-5.35693-55.29786-2.51172-75.25537-.62793-18.70069,1.76367-29.98926,2.82959-42.32569-1.28369-19.79394-6.59766-29.00488-22.13574-42.94824-45.65527-26.65967-44.97071-82.13477-138.54786-211.26709-208.08057h0c-57.31689-30.86328-265.33887-120.82178-317.5249-130.48438-25.26612-4.67724-79.56983,2.79249-119.21973,8.24708-61.6167,8.47656-92.54394,12.73144-115.28271-3.18555-24.84229-17.38965-41.25342-31.41309-53.21192-45.46924-18.44531-21.67969-26.75342-44.748-24.69385-68.56445,1.96192-22.69043,13.00635-43.94532,33.76368-64.978,15.72412-15.93262,38.22314-32.83643,68.78418-51.67725,52.19726-32.17968,128.897-71.27,264.73632-134.92431,76.66309-35.92432,121.16407-83.46875,132.26563-141.312,14.46631-75.37159-25.771-157.95166-63.36133-215.36915a397.08984,397.08984,0,0,1-17.458,46.35352c-20.65966,45.7876-49.32617,84.2876-90.21533,121.16113-75.67627,68.24414-196.55615,133.84278-431.13721,233.96875-110.54687,47.18506-177.894,108.48389-200.17041,182.19434-22.188,73.41846-1.40673,159.49219,61.76661,255.83105,2.03515,3.10352,3.64306,5.55469,4.937,7.66944,14.65918,23.94873,6.77685,47.32226-7.5376,59.86279-14.27637,12.50781-39.373,17.56494-60.74072-.88721-105.65088-91.24511-207.73975-88.53955-303.48828,8.02539,31.42919,20.94385,65.227,52.58252,100.522,94.106,47.26367,55.60449,108.45361,81.38428,151.46338,93.21973a86.93278,86.93278,0,0,1,58.20361,114.68554c-51.3667,134.7002,52.87305,259.43457,102.15479,308.52637C1124.3577,1988.79785,1237.77958,1949.52588,1338.52372,1949.52588Z" fill="#231f20"/>
    <path d="M926.402,1416.60891s344.27913,51.05776,386.9458-204.94224" fill="none" stroke="#231f20" stroke-miterlimit="10" stroke-width="90"/>
    <path d="M1473.2985,1219.98742s-14.1729-112.32075,216.93821-186.09853c205.75383-65.68295,177.77778-259.55556,177.77778-259.55556s199.11111,220.44445,46.22222,320c-209.5438,136.44713-127.11111,229.33334-127.11111,229.33334" fill="none" stroke="#231f20" stroke-miterlimit="10" stroke-width="90"/>
    <path d="M1436.90338,1413.44446c-1.77778-5.33338,54.47484-47.20534,145.77778-28.44446,129.77778,26.66667,144,133.33333,174.22222,145.77778,0,0-108.72861,138.8804-179.55555,44.44444C1497.34783,1468.55553,1427.27968,1411.27942,1436.90338,1413.44446Z" fill="#fff" stroke="#231f20" stroke-miterlimit="10" stroke-width="45"/>
    <path d="M2148.90338,1713c-2.15955-19.436-161.77778,30.22222-128,81.77778s81.77778,81.77778,97.77778,58.66666S2154.23671,1761,2148.90338,1713Z"/>
    <path d="M1899.1256,2115.66667C1726.68116,2057,1613.79227,2033,1555.1256,1887.22222s-131.55555-208-3.55555-184.88889S1846.68116,1921,1905.34783,1985,1899.1256,2115.66667,1899.1256,2115.66667Z" fill="#231f20"/>
    <path d="M705.34783,1474.77778c6.63295-2.60417,58.66666-30.22222,133.33333,8.88889s96,74.66666,51.55555,92.44444-88.88888,5.33333-128-42.66667S705.34783,1474.77778,705.34783,1474.77778Z"/>
    <path d="M3661.93875,2332.79785l-29.19531-22.22558c-6.18652-4.71387-153.06054-116.94629-288.56592-248.88672-46.80322-45.57129-68.81005-82.19287-71.35351-118.7417-2.67871-38.48828,11.58773-51.06663,26.30159-70.83274,15.76807-21.18262,18.963-22.81481,18.963-22.81481-.13428-.77979-4.01192-8.76566-4.14815-9.48149a47.00635,47.00635,0,0,1-8.2963,3.55556c-9.18518,2.963-17.23741,3.1815-26.963-.59259-19.85185-7.70371-41.6052-21.27876-49.25266-27.6518-1.25976-1.04981-3.21045-2.53321-5.46924-4.25049-28.67822-21.80274-88.352-67.17139-153.94922-253.606-22.42431-63.73242-19.34912-117.59521,9.14014-160.09228,42.44238-63.311,126.77-77.79688,177.873-82.10889l12.26172-104.22949,17.05957-11.54785c108.84423-73.67969,221.71631-130.20118,335.48291-167.9961,91.52148-30.40478,183.8291-48.82715,274.3584-54.75439,120.80761-7.91114,206.48242,8.59131,240.91015,17.05517,128.80371-51.04052,230.06348-51.05517,301.13379.00586,44.76758,32.16406,75.37988,84.2876,88.52637,150.73535a377.81023,377.81023,0,0,1,6.6123,55.01563c94.001,40.83935,171.05567,93.64307,229.34571,157.21777,52.21972,56.95362,89.41015,122.38281,110.54,194.47022,36.00391,122.83691,12.50684,222.67627,11.48926,226.86621l-22.47754,92.52637-56.76269-75.50586c-1.88379-2.30762-31.33594-37.64551-89.74317-67.92237-60.14648-31.17822-102.35633-46.99218-177.52333-46.00488l177.77778,206.22222c-106.66666-28.44444-403.813,23.77924-403.813,23.77924l27.49219,17.55274L4509.70243,2079.794l-179.15528-45.65528c-100.67773-25.65429-242.125,12.47852-409.05175,110.28028-131.01758,76.76269-230.90625,163.40332-231.89942,164.26953ZM3335.57,1754.77778c9.89648,0,22.492,3.72012,32,6.22222,16.88889,4.44444,34.16081.49365,42.66666,16,6.57715,11.98877-.546-4.37061,2.56728,13.6875,10.19824,59.14746-17.36231,96.17188-35.59961,120.67139-9.30957,12.50634-14.9375,20.45215-14.59717,25.33642.30274,4.3584,4.398,21.602,44.356,60.50781,97.12109,94.56641,202.9248,180.74708,252.17773,219.77833,40.19532-32.459,119.085-92.80469,215.57715-149.46485,81.99317-48.14551,159.74414-83.55713,231.09473-105.25a628.43323,628.43323,0,0,1,87.69238-20.269l-111.89941-71.44336,393.80957-88.45606-129.90137-171.72851,74.95605-11.2085c70.00391-10.46679,137.23829-9.94238,199.835,1.562,50.7373,9.32422,98.50488,25.83252,141.97558,49.06446a449.39984,449.39984,0,0,1,40.54883,24.46826,406.92116,406.92116,0,0,0-17.12793-101.86816c-40.67285-133.58643-146.24414-234.88868-313.78027-301.09278l-30.92383-12.21972,2.57324-32.80176c.19922-3.373,6.02246-113.9917-58.10937-159.76319-19.7295-14.08105-45.48731-21.2207-76.55372-21.2207-.14062,0-.27734,0-.418.00049-41.5293.08594-92.36036,12.606-151.083,37.21338l-15.46485,6.48047-15.59179-5.1084c-3.01563-.92139-90.43653-27.02637-229.14746-17.1958-126.39063,8.95556-322.02637,50.4414-543.36963,195.78076L3338.221,1395.16064l-32.04736,6.40967c-5.08008,1.01612-10.14746,1.27637-18.54248,1.708-26.69678,1.37158-107.9375,5.54688-133.7251,44.01367-11.82861,17.64551-11.4917,44.59717,1.00146,80.106,49.35254,140.26465,79.15413,169.28188,99.77366,192.71316C3274.23671,1742.33333,3335.57,1754.77778,3335.57,1754.77778Zm-16.15278,34.40386" fill="#231f20"/>
    <path d="M3147.1256,1569c13.33334,24,93.33334,104,133.33334,69.33333s0-32,56-77.33333,141.33333-16,106.66666-88-138.66666-128-221.33333-109.33333-106.66667,74.66666-106.66667,74.66666Z" fill="#231f20"/>
    <path d="M4064.45894,1035.66667c-8,10.66666-93.33334,146.66666,53.33333,170.66666,0,0-50.66667-69.33333,37.33333-122.66666Z" fill="#231f20"/>
    <path d="M4184.45894,1241c-16.79776-10.87565-2.66667-80-2.66667-80s144-130.66667,181.33333,53.33333c0,0-114.66666,26.66667-120,2.66667C4243.1256,1217,4197.76082,1249.61226,4184.45894,1241Z" fill="#231f20"/>
    <path d="M3520.45894,1397c6.66666-8,186.87985-173.49352,276-54.66667,8,10.66667,32,21.33334,6.66666,50.66667s-105.33333,86.66667-112,88-148-24-165.33333-58.66667S3520.45894,1397,3520.45894,1397Z" fill="#fff" stroke="#231f20" stroke-miterlimit="10" stroke-width="45"/>
    <path d="M833.34783,1745s-245.33334,113.77778-352,451.55556" fill="none" stroke="#231f20" stroke-miterlimit="10" stroke-width="110"/>
    <line x1="1900.01449" y1="2157.44444" x2="2522.23671" y2="2459.66667" fill="none" stroke="#231f20" stroke-miterlimit="10" stroke-width="90"/>
    <path d="M3401.52029,2787.94086l-85.812-27.13625c31.90932-100.9052,74.55268-196.26263,126.745-283.42525a1199.892,1199.892,0,0,1,142.88-192.69617c91.07618-99.69518,165.42021-144.871,168.54018-146.74449l46.34521,77.14924.09-.05446c-.67459.41088-68.4679,42.04992-151.14836,133.22952C3573.084,2432.17007,3468.36506,2576.56114,3401.52029,2787.94086Z" fill="#231f20"/>
    <path d="M4959.137,2355.39062l-82.08106-73.23046c42.84864-48.02832,56.94434-137.6045,38.6709-245.76172-9.57519-56.67188-27.40723-114.585-50.21289-163.07178-24.38574-51.84668-44.79492-71.81494-50.02246-74.72217l52.66406-96.57373c33.90625,18.48828,66.2461,59.814,96.11914,122.82862,26.875,56.69091,47.96973,124.23339,59.39649,190.18554,11.19238,64.59863,12.95312,124.69629,5.23242,178.625C5019.4534,2259.68262,4995.98075,2314.09375,4959.137,2355.39062Z" fill="#231f20"/>
    <path d="M4435.1256,1158.33333s56.88889,96-120.88889,174.22223c0,0,195.55556-39.11112,209.77778-64S4435.1256,1158.33333,4435.1256,1158.33333Z" fill="#231f20"/>
    <path d="M3272.45894,1794.77778c7.11111,0,68.11419-63.70847,125.94368-48.7436,254.05632,65.7436,223.38965-134.36751,372.723-123.70085,158.60519,11.329,61.08834,53.84741,10.66667,98.66667-96,85.33333-142.02217,142.72951-250.66667,170.66667-93.33333,24-259.11111,69.44444-198.66666-33.66667,41.44447-70.6994,14.66666-54.33333,14.66666-54.33333l60-7.88889Z" fill="#231f20"/>
    <polyline points="2301.792 1716.556 2490.237 1890.778 2614.681 1862.333 2483.126 1695.222 2700.014 1567.222 2835.126 1759.222 2916.903 1545.889 3091.126 1553" fill="none" stroke="#231f20" stroke-miterlimit="10" stroke-width="50"/>
    <path d="M3512.45894,1303.66667c-10.66667,2.66666-76,109.33333-10.66667,100S3616.45894,1325,3616.45894,1325l120-21.33333s81.33333,41.33333,85.33333,42.66666,92,61.33334,102.66667,100c0,0-9.33334-221.33333-300-160,0,0-104,80-105.33334,56S3512.45894,1303.66667,3512.45894,1303.66667Z" fill="#231f20"/>
    <path d="M1676.45894,1402.33333c-5.33334-1.33333-197.33334-157.33333-329.33334,8l-32,50.66667,156-64s124-18.66667,133.33334-13.33333S1676.45894,1402.33333,1676.45894,1402.33333Z" fill="#231f20"/>
    <path d="M1315.1256,1461s112.88889,8.44444,157.33334,23.55556,30.22222-8.88889,25.77777-10.66667-76.44444-80-76.44444-80l-76.44444,37.33333Z" fill="#231f20"/>
    <path d="M3924.45894,1446.33333s-85.33334-53.33333-153.33334-16l29.33334-33.77777,12.44444-78.22223,50.66667,25.77778,44.44444,61.33333Z" fill="#231f20"/>
    <path d="M1718.68116,689c-4.0752,5.4336-27.28838,123.53236-110.22222,177.77778-134.142,87.7397-369.83228,154.09209-472,259.55555-145.20565,149.88971,96,253.33334,96,253.33334l42.66666-54.22223,28.44445-64-46.22222-131.55555,443.55555-252.44445Z" fill="#231f20"/>
    <path d="M1931.1256,1013c0,5.33333,17.33334,10.66667-74.66666,68s-160,100-176,142.66667-1.33334,52-1.33334,52L1752.45894,1285l41.33333-65.33333,82.66667-97.33334Z" fill="#231f20"/>
    <path d="M1363.1256,2566.33333c1.09495-4.01481-.58259-10.65226-4.46342-19.33929-33.92507-75.93931-236.2194-308.50178-226.64769-314.88293,10.66667-7.11111,437.33334-145.77778,437.33334-145.77778l96,152.88889c29.65062,10.54286,259.55555-56.88889,259.55555-56.88889L2383.57,2413.44444l60.44444,152.88889,10.66667,334.22223-974.22222,88.88888s-184.88889-46.22222-167.11111-78.22222S1363.1256,2566.33333,1363.1256,2566.33333Z" fill="#231f20"/>
    <path d="M3358.4747,1992.897c-7.02873-10.71044,4.93709-23.69413,16.18428-17.56082,69.00629,37.63051,200.05707,106.50956,242.68885,110.99711,67.55555,7.11111,334.22222-195.55555,480-163.55555l-177.77778-88.88889s474.90252-110.40229,633.8957-23.20114L4172.01449,1905l68.44445,54.66667S3706.23671,2225,3695.57005,2232.11111s-160-42.66667-160-42.66667l-167.11111-181.33333Z" fill="#231f20"/>
    <path d="M4384.45894,1051.66667c9.33333,9.33333,88,153.33333-62.66667,256s-138.66667,92-138.66667,92,320-28.98617,320-121.33334c0-4-20-181.33333-20-181.33333l-85.33333-65.33333-18.66667,8Z" fill="#231f20"/>
    <path d="M1306.23671,1953s-277.33333-16-250.66666,394.66667l208,74.66666,154.66666-58.66666s80-144,101.33334-154.66667,37.33333-101.33333,37.33333-101.33333l-69.33333-101.33334Z" fill="#231f20"/>
    <path d="M4744.45894,1702.33333C4751.57005,1713,5021.79227,2001,4634.23671,2260.55556c0,0-430.22222-184.88889-640,88.88888s-14.22222-7.11111-14.22222-7.11111l103.11111,149.33334,743.11111-103.11111,128-206.22223V1944.11111l-113.77777-216.88889Z" fill="#231f20"/>
    <path d="M1540.459,2085c-8,2.6665,34.66662-40,34.66662-40-26.7077-35.44385-54.72107-63.413-83.46643-85.53625-11.9884-27.6709-37.98071-60.19788-89.42242-97.1305-138.66669-99.55542-96-56.88879-96-56.88879l24.825,81.56787c-127.033-26.84778-248.32391-.14661-318.15832-49.56787-115.55561-81.77783,92.44439-289.77783,92.44439-289.77783s-146.436,35.45507-224.88885,44.44445c-85.33332,9.77784-110.22223-29.33325-169.77777-98.66662-71.34192-83.05481-169.77777-25.77783-175.11115-24,0,0,97.18219,82.06042,107.5556,99.55554s146.66663,117.33325,146.66663,117.33325l64,18.66675,40,266.66663,88,130.66662L1160.459,2017l205.98486-13.73242,14.4596,47.51025,106.66662,5.33325c.93689-3.51318,2.55286-7.73706,4.33521-12.64941L1592.459,2131.6665s93.33331,106.66675,112,101.3335C1723.12558,2227.6665,1548.459,2082.33325,1540.459,2085Z" fill="#231f20"/>
    <path d="M1594.23671,1787.66667s29.92107,115.91111,76.16273,148.62222,172.72616,75.37778,172.72616,75.37778S1739.76191,1855.22222,1594.23671,1787.66667Z" fill="#fff"/>
    <path d="M3387.1256,1790.33333c-13.12288-6.84672-15.98449,32.60734-16.35546,61.6438a25.04059,25.04059,0,0,0,28.9685,25.01989c42.38551-6.68408,157.16474,6.66965,288.7203-110.66369,22.47436-20.04469-17.77778-85.33333-72.88889-19.55555C3571.66406,1799.1817,3420.937,1807.97405,3387.1256,1790.33333Z" fill="#fff"/>
  </g>
  <g id="Layer_5" data-name="Layer 5">
    <g>
      <path d="M3246.61864,2192.43055c-21.35476-17.319-51.91984-32.25374-86.06467-42.05315s-67.97806-13.34669-95.26714-9.98828c-19.49815,2.39981-27.28964-28.68358-36.4356-20.07508-4.55345,4.28587-14.74088,46.16067-16.34687,51.75654-4.83175,16.83562,5.0936,36.31577,27.94794,54.85134,21.35475,17.319,51.91992,32.25346,86.06474,42.05287,34.14511,9.7995,67.97827,13.34706,95.26707,9.98856,29.20559-3.59459,47.95071-14.84584,52.78262-31.682,2.01108-7.00733,14.94357-42.39063,11.9734-50.05533C3282.37426,2186.47571,3259.96053,2203.25124,3246.61864,2192.43055Z" fill="#d26a28"/>
      <ellipse cx="3157.86963" cy="2165.56416" rx="55.14593" ry="129.73013" transform="translate(205.20518 4603.51031) rotate(-73.98675)" fill="#f3b628"/>
      <path d="M3090.63782,2103.032c2.65248,2.42421,43.773,114.83464,43.773,114.83464l50.52138,6.73894-44.69445-116.48489Z" stroke-miterlimit="10" stroke-width="0.60142" fill="url(#linear-gradient)" stroke="url(#linear-gradient-2)"/>
      <path d="M3158.467,2113.62956c2.65248,2.42421,43.773,114.83463,43.773,114.83463l19.51479.05746-46.162-107.48263Z" stroke-miterlimit="10" stroke-width="0.60142" fill="url(#linear-gradient-3)" stroke="url(#linear-gradient-4)"/>
      <path d="M3138.86345,2225.9553c-34.14483-9.79941-64.71-24.73389-86.06475-42.05287-22.85434-18.53557-32.77968-38.01572-27.94793-54.85134s23.57687-28.08686,52.78246-31.68146c27.28908-3.35841,61.12232.18887,95.26715,9.98828s64.70991,24.73417,86.06466,42.05316c22.85434,18.53556,32.77985,38.01515,27.9481,54.85077-4.83191,16.83619-23.577,28.08743-52.78263,31.682C3206.84171,2239.30236,3173.00855,2235.7548,3138.86345,2225.9553Zm30.425-106.012c-32.47019-9.3188-64.42973-12.71809-89.99119-9.57212-23.30234,2.86745-38.52956,11.00177-41.77673,22.3161-3.24732,11.3149,5.3488,26.28581,23.58379,41.07489,20.00274,16.2227,48.90089,30.289,81.37109,39.6078s64.42994,12.71846,89.9914,9.57248c23.30221-2.86808,38.52927-11.00184,41.7766-22.31674,3.24716-11.31433-5.3488-26.28581-23.58367-41.07425C3230.6567,2143.32865,3201.75863,2129.26208,3169.28843,2119.94327Z" fill="#ffd838"/>
    </g>
    <g>
      <path d="M3070.712,1916.42182c-25.54607-37.786-66.87548-76.14436-116.37461-108.009s-101.52682-53.604-146.49883-61.21341c-32.13278-5.43659-29.47762-58.742-48.16873-49.3511-9.30564,4.6754-45.73841,66.65747-50.99561,74.8241-15.81668,24.56994-9.471,60.37309,17.86877,100.81316,25.54607,37.786,66.87574,76.14395,116.37488,108.00856,49.49954,31.86489,101.527,53.60473,146.49856,61.21383,48.13056,8.14327,83.34766-.90306,99.16487-25.47382,6.58323-10.22652,44.23723-60.545,43.2258-74.18775C3130.38847,1923.91141,3086.67238,1940.0299,3070.712,1916.42182Z" fill="#d26a28"/>
      <ellipse cx="2942.72915" cy="1831.37208" rx="92" ry="214.98734" transform="translate(-190.0124 3314.44622) rotate(-57.22896)" fill="#f3b628"/>
      <path d="M2866.17348,1699.63286c3.04106,5.12909,13.99891,204.05466,13.99891,204.05466l76.99285,34.76343-14.66459-207.126Z" stroke-miterlimit="10" fill="url(#linear-gradient-5)" stroke="url(#linear-gradient-6)"/>
      <path d="M2968.79326,1748.77912c3.04106,5.12908,13.99891,204.05465,13.99891,204.05465l30.97088,9.36579-21.34915-193.45773Z" stroke-miterlimit="10" fill="url(#linear-gradient-7)" stroke="url(#linear-gradient-8)"/>
      <path d="M2883.33367,1918.71141c-49.49914-31.86462-90.82881-70.22255-116.37488-108.00856-27.33979-40.44008-33.68545-76.24322-17.86877-100.81316s51.03378-33.61627,99.16434-25.473c44.972,7.60936,96.99969,29.3488,146.49883,61.21341s90.82854,70.223,116.37461,108.009c27.33979,40.44008,33.686,76.2424,17.8693,100.81235-15.81721,24.57076-51.03431,33.61709-99.16487,25.47382C2984.86063,1972.31614,2932.83321,1950.57629,2883.33367,1918.71141Zm99.59586-154.7142c-47.07146-30.30182-96.19438-50.91465-138.31939-58.042-38.40176-6.49823-66.52346-.754-77.153,15.75813-10.63008,16.513-4.21522,44.48863,17.59865,76.75483,23.92858,35.394,63.0301,71.57432,110.10156,101.87614s96.19452,50.91532,138.31953,58.04267c38.40188,6.49714,66.523.75377,77.15314-15.75922,10.62955-16.51217,4.21521-44.48862-17.59877-76.75374C3069.10224,1830.47972,3030.001,1794.299,2982.92953,1763.99721Z" fill="#ffd838"/>
    </g>
    <g>
      <path d="M2573.78739,2073.905c-41.93311-17.94434-97.44727-27.82666-156.31592-27.82666s-114.38281,9.88232-156.31592,27.82666c-29.96127,12.82163-56.582-33.43691-67.21513-15.42347-5.29384,8.96826-2.37813,80.80573-2.37813,90.51819,0,29.22071,24.71533,55.89063,69.59326,75.09571,41.93311,17.94433,97.44727,27.82617,156.31592,27.82617,58.86914,0,114.3833-9.88184,156.31592-27.82617,44.87793-19.20508,69.59326-45.874,69.59326-75.09571,0-12.16226,4.42447-74.85351-3.8106-85.77745C2628.01977,2047.90062,2599.9862,2085.11648,2573.78739,2073.905Z" fill="#d26a28"/>
      <ellipse cx="2420.13826" cy="2071.66667" rx="214.98734" ry="92" fill="#f3b628"/>
      <path d="M2284.45894,2002.33333c5.33333,2.66667,122.22222,164,122.22222,164l83.55555-12.44444-124.44444-166.22222Z" stroke-miterlimit="10" fill="url(#linear-gradient-9)" stroke="url(#linear-gradient-10)"/>
      <path d="M2397.34783,1988.11111c5.33333,2.66667,122.22222,164,122.22222,164l31.11111-8.88889-122.66667-151.11111Z" stroke-miterlimit="10" fill="url(#linear-gradient-11)" stroke="url(#linear-gradient-12)"/>
      <path d="M2417.47147,2177.25488c-58.86865,0-114.38281-9.88183-156.31592-27.82617-44.87793-19.20508-69.59326-45.875-69.59326-75.0957s24.71533-55.88965,69.59326-75.09473c41.93311-17.94433,97.44727-27.82666,156.31592-27.82666s114.38281,9.88233,156.31592,27.82666c44.87793,19.20508,69.59326,45.874,69.59326,75.09473,0,29.22168-24.71533,55.89062-69.59326,75.0957C2531.85477,2167.37305,2476.34061,2177.25488,2417.47147,2177.25488Zm0-183.99951c-55.98145,0-108.44336,9.25733-147.72168,26.06592-35.80713,15.32226-56.34375,35.374-56.34375,55.01172,0,19.63867,20.53662,39.68945,56.34375,55.01269,39.27832,16.8086,91.74023,26.06543,147.72168,26.06543s108.44385-9.25683,147.72217-26.06543c35.80664-15.32324,56.34326-35.374,56.34326-55.01269,0-19.6377-20.53662-39.68946-56.34326-55.01172C2525.91483,2002.5127,2473.45292,1993.25537,2417.47147,1993.25537Z" fill="#ffd838"/>
    </g>
    <g>
      <path d="M2951.60383,2250.19825c-32.58359-7.28207-73.85736-6.93935-116.21806.96489s-80.98069,22.4692-108.74554,41.01191c-19.838,13.24906-45.20485-16.46331-50.43756-2.0735-2.60518,7.16417,9.13846,58.46549,10.44255,65.45438,3.92344,21.02663,25.289,36.89927,60.16095,44.69314,32.58359,7.28206,73.85729,6.939,116.218-.96525,42.36106-7.9043,80.98111-22.46891,108.74561-41.01155,29.71461-19.84531,43.91845-42.35426,39.99488-63.38159-1.633-8.75172-6.86676-54.45716-14.2593-61.21209C2987.13679,2224.20432,2971.96133,2254.74815,2951.60383,2250.19825Z" fill="#d26a28"/>
      <ellipse cx="2840.74047" cy="2269.21796" rx="157.37066" ry="67.34397" transform="translate(-368.03941 559.57231) rotate(-10.56949)" fill="#f3b628"/>
      <path d="M2733.799,2237.54462c4.19581,1.20278,109.9688,101.60044,109.9688,101.60044l58.454-20.1737-111.86623-102.90113Z" stroke-miterlimit="10" stroke-width="0.732" fill="url(#linear-gradient-13)" stroke="url(#linear-gradient-14)"/>
      <path d="M2813.122,2212.15311c4.19581,1.20277,109.96879,101.60044,109.96879,101.60044l21.19343-10.57353-108.558-92.26618Z" stroke-miterlimit="10" stroke-width="0.732" fill="url(#linear-gradient-15)" stroke="url(#linear-gradient-16)"/>
      <path d="M2852.99873,2345.55519c-42.3607,7.90424-83.6344,8.24731-116.218.96524-34.87191-7.79387-56.23751-23.6665-60.16095-44.69313s10.2804-43.53558,39.995-63.38089c27.76485-18.5427,66.38484-33.10766,108.74554-41.01191s83.63447-8.24695,116.21806-.96489c34.87191,7.79387,56.23738,23.6658,60.16082,44.69243,3.92357,21.02734-10.28027,43.53628-39.99488,63.38159C2933.97984,2323.08627,2895.35979,2337.65088,2852.99873,2345.55519Zm-24.70545-132.40236c-40.28312,7.51658-76.79069,21.222-102.79771,38.591-23.70878,15.83339-35.79419,33.01966-33.15746,47.15055,2.63687,14.1316,20.10681,25.80231,47.93034,32.02081,30.52077,6.82126,69.51422,6.43828,109.79734-1.0783s76.79111-21.22169,102.79813-38.59068c23.7083-15.834,35.79384-33.0196,33.157-47.1512-2.63674-14.13089-20.10681-25.8023-47.92986-32.02017C2907.56992,2205.25362,2868.57641,2205.63625,2828.29328,2213.15283Z" fill="#ffd838"/>
    </g>
    <g>
      <path d="M2584.41675,1736.30639c-29.05057-6.49247-65.849-6.18692-103.6166.86027s-72.2,20.03288-96.95431,36.565c-17.687,11.81247-40.30331-14.6782-44.96864-1.84868-2.32271,6.38738,8.14758,52.12611,9.31026,58.3572,3.498,18.74673,22.547,32.8983,53.63773,39.84709,29.05057,6.49247,65.849,6.1866,103.61654-.86059,37.76786-7.04724,72.20036-20.03262,96.95437-36.56469,26.49267-17.69349,39.1564-37.7618,35.65826-56.50916-1.456-7.80277-6.1222-48.55239-12.71317-54.57489C2616.09688,1713.131,2602.56689,1740.363,2584.41675,1736.30639Z" fill="#d26a28"/>
      <ellipse cx="2485.57424" cy="1753.2638" rx="140.30704" ry="60.0419" transform="translate(-279.4251 485.67084) rotate(-10.56949)" fill="#f3b628"/>
      <path d="M2390.2284,1725.02479c3.74087,1.07236,98.04494,90.584,98.04494,90.584l52.11586-17.98628-99.73664-91.74361Z" stroke-miterlimit="10" stroke-width="0.65263" fill="url(#linear-gradient-17)" stroke="url(#linear-gradient-18)"/>
      <path d="M2460.95043,1702.38646c3.74086,1.07237,98.04494,90.584,98.04494,90.584l18.89543-9.427-96.78714-82.26181Z" stroke-miterlimit="10" stroke-width="0.65263" fill="url(#linear-gradient-19)" stroke="url(#linear-gradient-20)"/>
      <path d="M2496.50335,1821.32383c-37.76755,7.04718-74.566,7.353-103.61653.86058-31.09077-6.94878-50.13971-21.10036-53.63773-39.84708s9.1657-38.815,35.65837-56.50853c24.75432-16.53213,59.18676-29.51782,96.95432-36.565s74.566-7.35274,103.61659-.86027c31.09077,6.94879,50.13959,21.09973,53.63761,39.84646,3.49814,18.74735-9.16558,38.81566-35.65825,56.50915C2568.70372,1801.2912,2534.27122,1814.27658,2496.50335,1821.32383Zm-22.02665-118.046c-35.91525,6.70156-68.46432,18.92089-91.65141,34.40657-21.13805,14.11658-31.913,29.43936-29.56221,42.038,2.351,12.59932,17.92664,23.00457,42.73328,28.54881,27.21141,6.08164,61.97682,5.74018,97.89207-.96138s68.46469-18.92063,91.65178-34.40632c21.13762-14.11714,31.91273-29.4393,29.56178-42.03861-2.35084-12.59869-17.92664-23.00457-42.73285-28.54824C2545.15742,1696.23508,2510.392,1696.57623,2474.4767,1703.27779Z" fill="#ffd838"/>
    </g>
  </g>
  <g id="Text_Panton" data-name="Text Panton">
    <g>
      <g id="_3" data-name="3">
        <path d="M2713.66715,3633.03027c-136.71973-.06518-274.6449-3.17651-409.81836-12.70337a297.68523,297.68523,0,0,1-81.35248-17.301,299.10116,299.10116,0,0,1-70.6499,5.70776c-3.60327-.14648-7.32044-.448-10.94232-.77466-145.86066-13.15625-292.6131-30.11206-435.91242-53.82812-63.16087-10.45313-123.17-40.8147-161.32179-94.35181a476.47848,476.47848,0,0,1-67.60029,21.512c-61.73812,14.33544-126.53171,15.63525-189.40764,7.2268-20.89751-2.79468-42.12887-6.76611-62.65731-11.64087-66.84613-15.87353-131.76269-42.5708-189.34912-80.03369-50.95456-33.14844-96.84506-75.196-132.51221-125.49609-77.46121,31.62793-163.48361,34.228-243.78317,18.4685A598.75974,598.75974,0,0,1,575.139,3266.709c-102.10345-35.96435-203.96582-75.917-304.3147-117.15551-50.8269-20.88745-96.49121-56.30469-123.40417-104.95118-25.73865-46.52392-29.77307-98.27929-17.3385-149.46923q77.00757-299.92749,154.01489-599.855c14.45618-53.90894,45.01794-101.0083,93.545-130.144,48.2356-28.96069,106.75019-35.60156,161.13819-22.88134.80346.1875,1.61682.38476,2.428.57934,91.745,22.00269,184.57183,42.18775,277.29724,61.28955.113.023.16955.03418.28253.05713,45.45624,9.76807,89.36606,24.22,129.74222,45.9751a387.00393,387.00393,0,0,1,65.9563,44.67505c44.20092-26.46533,95.54922-33.64942,145.28836-26.06763.782.11914,1.58766.26807,2.38276.40356,35.10993,5.98365,70.81047,11.84571,105.92763,17.05762.88981.13208,1.8013.24732,2.6776.39185,50.75535,8.36841,98.16483,32.09228,132.02225,72.53125,43.3488-29.4148,95.14248-39.30518,145.97209-33.707.62425.06884,1.27113.1604,1.9085.24145,35.35633,4.49072,71.24482,8.8711,106.554,12.61231.96066.1018,1.94507.18383,2.88831.30127,29.76477,3.70727,56.86172,12.48632,83.78967,26.66723,29.15329-8.30493,57.39538-11.36719,87.19259-9.03564.57242.04468,1.16822.11181,1.75388.16821,35.44928,3.41333,71.44638,6.741,106.79269,9.37793,1.02271.07642,2.05579.14453,3.07544.22632,53.78864,4.3186,106.24817,28.33154,141.075,68.8977a216.99477,216.99477,0,0,1,43.63964,80.65845c6.39276,21.48291,8.08777,44.2229,8.34418,66.75952,7.23676-53.28369,28.501-102.58178,68.76935-138.9497,41.52191-37.50025,95.647-54.12476,150.29974-52.77027.506.01245,1.02777.04126,1.54193.06153,35.5658,1.40234,71.60364,2.71923,107.01416,3.394,1.1189.02124,2.2472.0332,3.35962.061,53.77906,1.34986,107.29322,22.42066,144.20154,60.84717a217.57222,217.57222,0,0,1,48.30139,78.67066c7.57813,21.19384,10.53772,43.90893,12.07141,66.49194,4.11841-53.88135,22.53467-104.60767,60.8899-143.38379,39.38232-39.81445,92.52856-59.42456,147.23706-61.09375.45862-.01392.93286-.01343,1.39892-.02075,37.34973-.592,75.13111-1.45435,112.4-2.75073.803-.02784,1.62134-.07081,2.41345-.085,40.5061-.72436,81.59387,8.0066,116.46057,29.12745a274.57314,274.57314,0,0,1,27.81189,19.56665c37.33521-38.052,87.16309-57.91285,139.03638-61.67505.42212-.03052.86328-.04883,1.29773-.07447,32.64746-1.91235,65.44116-4.17334,98.14441-6.5144,54.8413-2.54785,109.39575,11.23364,151.10595,46.87891,23.61743,20.18335,42.55371,44.5874,55.33057,72.44482,11.53589,25.15161,17.40137,52.1499,20.58032,80.387q37.08912,387.87159,74.37183,775.72437c4.86181,62.01587-10.81372,121.64575-54.10254,167.323-39.02246,41.17553-94.43506,64.52832-150.15942,70.87671-40.43555,4.60644-81.43543,9.24218-121.98743,13.54589-4.56983.48487-9.261.94605-13.7732,1.1604-43.86022,2.08326-87.43164-5.384-126.15783-24.75024a268.29436,268.29436,0,0,1-32.29517-19.67773q-1.77576,1.8109-3.53528,3.51831c-43.51184,42.23486-101.88635,61.875-161.20532,64.94043-36.361,1.87915-73.17822,3.08911-109.66406,4.355-1.81885.063-3.67432.13818-5.45178.14892a300.73427,300.73427,0,0,1-77.24866-9.77514,295.31927,295.31927,0,0,1-80.75073,12.62866C2733.64493,3633.10034,2723.60367,3633.0271,2713.66715,3633.03027Zm-44.12744-553.67968q.07818-25.65272.15649-51.30542-.12121,25.652-.2428,51.3042C2669.48148,3079.35059,2669.512,3079.35059,2669.53971,3079.35059Z" fill="#231f20"/>
        <path d="M3659.04911,3561.4563c-58.33179,3.93017-117.17212-8.27588-163.99536-44.61011-47.593-36.9314-71.35511-90.875-76.1792-150.25757q-27.71668-387.72363-55.22168-775.46216c-3.61329-58.6477,9.75512-115.99267,48.38855-161.24145,36.04382-42.21582,87.21106-65.397,141.13708-70.83984.46582-.04712.949-.08106,1.42285-.12232,36.93555-3.23193,74.45117-6.69043,111.13819-10.73657,1.3413-.148,2.69921-.30933,4.02514-.44409,53.0874-5.39063,107.32886,8.72851,149.57495,41.728q1.54542,1.207,3.11646,2.48584a490.34266,490.34266,0,0,1,72.7312-51.22729c56.93286-32.42236,120.63184-52.69165,185.5498-62.18823,86.64161-12.67432,177.4336-7.23511,260.73633,24.40429,32.16016-38.37011,77.95288-63.17871,126.91675-72.36181.29981-.05542.44946-.08277.74927-.13819,132.69507-25.45288,266.02978-52.927,396.33935-84.63159,1.4292-.34765,2.89161-.73022,4.3003-1.04077,53.65722-11.825,110.29883-6.39233,158.83032,22.36963,48.63354,28.82251,79.48144,75.688,94.30469,129.42969q10.95117,42.78,21.9021,85.56006c13.57934,51.61059,8.104,107.40771-18.68067,153.9436a321.84775,321.84775,0,0,1,10.58277,32.33472q10.89073,43.40478,21.782,86.80908a226.27035,226.27035,0,0,1,5.0686,25.68335c1.938,1.01855,3.87061,2.06738,5.7688,3.15283,48.61255,27.79492,79.57153,72.71484,93.79688,126.6189q10.94751,42.63867,21.89526,85.27758c11.78174,50.08619,7.68066,98.74585-15.0459,144.22583-25.52295,51.07593-73.38135,87.36377-125.70386,109.29566C5000.6995,3209.658,4852.20047,3265.49048,4704.5867,3313.031a314.13868,314.13868,0,0,1-38.08032,9.99072c-42.54053,7.98242-85.595,4.67822-127.5935-9.8645-5.83741,5.66967-11.83326,11.28466-17.97,16.637a563.6621,563.6621,0,0,1-110.845,75.54028,632.87073,632.87073,0,0,1-199.05981,63.26709c-58.06958,8.18726-117.75513,8.0564-175.24341-2.8667a491.73546,491.73546,0,0,1-73.814-20.519c-12.85059,18.26514-28.65332,33.772-46.05518,47.15137-31.61182,24.30469-69.99512,38.47241-109.04419,45.62549-42.15454,7.72216-85.509,14.27148-128.14282,21.00219-6.5459,1.03345-13.17969,1.88282-19.68335,2.4607Z" fill="#231f20"/>
      </g>
      <path id="_2" data-name="2" d="M1391.24221,2514.17529c-7.10453-.96826-10.65647-1.45581-17.75965-2.43725,4.44737-38.04151-1.67364-71.20435-25.07389-101.88306-21.98826-28.82739-54.13917-44.773-88.70511-50.65625-.74285-.12646-1.53258-.22119-2.29729-.33325-35.64171-5.22681-72.00591-11.231-107.66054-17.33447-.62874-.10767-1.26616-.23-1.88481-.32056-35.10536-5.1521-70.54329.19482-100.74373,20.80981-14.6253,9.9834-25.72507,23.44507-35.58224,38.01685-.4188-.58936-.81925-1.18945-1.243-1.77539-25.65554-35.46533-59.58-62.81372-97.42077-83.76758-33.66706-18.64282-70.92658-30.20654-108.62543-38.3479-.15021-.03052-.22528-.04565-.37543-.07593-93.57818-19.27514-187.32574-39.60644-279.84539-61.855-.64917-.156-1.30689-.32739-1.94446-.46484-35.484-7.65381-72.32-5.144-104.41107,14.10913-31.81611,19.08838-49.98835,50.30859-59.43982,85.574q-74.78632,301.04737-149.573,602.09449c-19.7522,73.75415,25.53137,139.39575,92.901,167.01855,99.19635,40.67212,199.99518,80.31177,300.91345,115.75147a506.92015,506.92015,0,0,0,70.03046,19.47045c65.47467,12.82471,137.93451,11.71851,199.98285-16.51562a287.0081,287.0081,0,0,0,59.5954-36.57739,434.77171,434.77171,0,0,0,26.198,50.00024c30.78321,50.04,74.66223,91.56983,123.47629,123.21753,49.08286,31.822,104.24309,54.42407,161.16722,67.91577,17.48694,4.14453,35.66913,7.55225,53.46679,9.93408,48.62273,6.50733,98.8042,6.10645,146.82439-3.62207,50.31181-10.19262,98.91468-30.95214,139.98223-63.5791q3.0823-2.44886,6.09308-4.978c.02574,23.925,5.73868,47.79664,17.84727,68.52857,23.23761,39.78442,65.94333,62.80078,110.46961,69.65552,142.6072,21.9541,286.5971,40.19409,430.6723,53.14111,2.45538.2207,4.97.4375,7.35766.521,25.14606.87866,50.187-2.22388,73.77735-12.728,23.71655,15.001,51.55383,22.7478,79.38019,24.38208,134.4414,7.896,269.82714,12.53467,404.8269,12.54468,9.81653.00073,19.7959.11816,29.46167-.08448,27.56458-.57763,54.96082-5.91137,79.62708-19.79638,24.37768,12.39355,50.81262,16.99951,77.45019,16.95385,1.26123-.00219,2.58313-.0625,3.89026-.10839,36.33386-1.271,73.18518-2.31958,109.24634-4.33765,38.07141-2.13062,75.17688-13.93677,103.40991-40.80762,30.606-29.12915,40.77173-69.76391,39.84827-110.90161-.11353-2.57007-.17029-3.855-.28369-6.42529,13.95043,22.354,28.12207,44.68945,42.08959,66.91089,29.01819,46.16577,83.28162,70.69336,137.11011,67.25024,3.08716-.19751,6.2677-.46582,9.38526-.79883,40.33337-4.31054,81.40112-8.34106,121.4469-13.47778,35.52539-4.55688,70.95922-17.60132,96.26342-44.562,26.84522,15.66186,59.26612,21.80469,89.98584,18.89917,4.36353-.4126,8.88867-.9729,13.34424-1.67871,42.21753-6.68628,85.45361-12.98389,126.99-20.79346,43.37329-8.155,84.59058-30.69458,107.04077-70.71021,10.34595-18.44091,15.52027-40.30834,15.8689-61.47534.08569.0647.16968.13062.25561.19532,41.25831,31.01391,89.623,50.50415,139.3523,59.88427,47.6394,8.98609,97.22876,8.95215,145.325,2.16284a536.57077,536.57077,0,0,0,57.90381-11.543c86.76514-22.27442,170.63867-66.04517,232.6709-131.928a509.31436,509.31436,0,0,0,33.7146-40.02979c7.802,7.82959,15.5813,15.27027,25.04565,21.07691,31.40357,19.26709,67.77661,23.34106,102.946,17.36767a174.66677,174.66677,0,0,0,25.69824-6.77441c146.27148-49.01953,293.83984-101.85962,435.08374-161.71167,34.2456-14.51148,65.18921-36.95435,82.71973-70.80274,15.61572-30.15136,17.00073-62.62646,9.85864-95.53784q-10.72339-43.16565-21.44653-86.331c-9.15357-34.65821-27.28248-64.18994-58.71094-82.3003-13.04053-7.5144-26.9126-11.613-41.58179-14.76489,2.44727-20.17383,1.31274-38.42846-2.85327-58.24853q-10.60767-43.72083-21.21436-87.44214c-5.429-19.91944-12.85522-39.08545-26.10205-55.22437,9.53345-9.61841,18.16016-19.47241,24.75293-31.31714,17.25025-30.99194,18.415-64.96411,10.98853-99.2185q-10.67688-43.11182-21.35352-86.22388c-9.78442-35.24878-28.147-65.77881-59.89282-84.87158-31.3833-18.87476-67.86963-21.24756-102.52637-13.80054-1.1416.24536-2.33545.56787-3.4956.852-131.28638,32.16944-266.60962,60.4292-400.104,85.44556-.293.05493-.5935.10352-.88257.16309-35.39721,7.28173-67.52221,24.65625-89.13793,55.042-9.155,12.86963-15.46705,27.89038-19.26758,43.18384a347.34491,347.34491,0,0,0-35.32178-19.18921c-77.12964-36.22559-164.5105-42.64063-246.8811-30.58618-52.249,7.64624-103.75147,23.41015-150.228,48.32568-49.24194,26.398-92.99463,63.37256-125.65991,110.04785-9.19507-24.67432-22.28443-46.13232-43.02417-62.64185-26.48218-21.08056-61.96729-29.373-95.2544-26.13525-1.07739.10474-2.18384.24414-3.26733.36572-37.23731,4.17749-75.46753,7.645-113.02539,10.9209-.39575.03443-.79566.06909-1.19092.10156-31.53784,2.59131-62.70068,16.30567-85.05884,38.9983-26.55884-19.88526-58.5448-25.80054-91.04577-24.72046l-.24305.01709c-32.94665,2.3374-65.99658,4.63037-98.869,6.55957-.36487.02148-.73755.03442-1.09461.06225-35.09863,2.73047-68.20349,15.76685-92.645,42.51-24.4685,26.77246-35.21716,63.416-34.397,99.39014-10.423-18.5835-20.703-37.53906-31.12952-55.82788-12.61767-22.13208-28.99011-41.00562-51.45788-54.22388-23.468-13.80688-49.46961-19.06641-75.86-18.769-.65881.00732-1.35266.04931-2.02771.07348-37.72266,1.35572-76.06421,2.2002-113.90173,2.7876-.3916.00611-.791.00318-1.17749.01685-35.39661,1.259-69.20618,13.01709-94.916,38.85718-28.32654,28.47-40.18139,69.0061-39.03882,108.66723q1.2519,268.18689,2.52246,536.37378c-2.477-.08984-4.98767-.14477-7.55774-.13623-.1748.00049-.26208.00073-.43676.00147q-14.35584.07178-28.71228.075-61.76148-.00805-123.55884-1.06714,3.35706-268.12683,6.6864-536.25391c-.29065-39.95215-9.98364-80.46435-38.57324-109.58252-23.86731-24.30859-58.45349-37.49707-92.29212-38.47851-.91394-.02661-1.85559-.02979-2.77575-.04517-35.88928-.606-72.61432-1.97729-108.68994-3.44531-.43628-.01782-.8797-.04541-1.31086-.05371-35.39379-.68433-69.78057,9.16552-96.884,33.50171-29.76587,26.72656-43.92059,66.32934-45.05353,105.84912q-13.98395,264.40978-28.01965,528.81714-2.42449-.25635-4.877-.45679-77.28233-6.23511-154.53186-14.24219,18.38031-262.0686,36.67218-524.14331c3.01824-39.106-5.66669-80.61938-32.21967-110.46924-23.60345-26.53418-56.10773-40.22192-90.38666-43.63745-.84375-.084-1.74206-.12475-2.61273-.189-35.85312-2.6377-72.44983-6.03736-108.42157-9.51783-.48236-.04663-.97375-.10449-1.4469-.13964-31.31488-2.33106-62.28464,3.34887-89.36517,21.0874-22.81064-22.94727-51.819-34.84668-82.93375-38.85254-.79712-.10254-1.64438-.16773-2.4657-.25366-35.80662-3.74048-72.29724-8.24121-108.19442-12.80469-.51659-.06567-1.04067-.14356-1.54738-.19653-35.06833-3.67481-70.03636,3.04272-99.134,24.84741-30.70813,23.01172-43.8192,53.85644-49.46214,91.01147m2789.27125,490.75c-1.6333.38013-3.21045.71289-4.71679.99512" fill="#181b0f"/>
      <g id="_1" data-name="1">
        <path d="M961.94367,2615.6189c-11.37464,60.69336-41.943,117.89184-101.196,143.07592-.3294,1.7295-.49414,2.59375-.82354,4.32325,64.53735,51.84179,79.69049,136.62915,66.51095,214.509-10.0603,59.448-44.41812,115.40723-100.903,140.45581-59.26569,26.28174-129.909,15.88013-189.06458-5.24487q-149.7648-53.38295-296.74493-114.03687c-25.46778-9.42383-39.72656-31.4834-32.71961-58.36987q72.043-302.62939,144.08612-605.25855c5.48542-25.67529,25.50013-39.10717,51.321-31.65991q141.11508,33.33692,283.13513,62.58692c56.10846,11.228,113.04416,36.64965,147.28607,84.30615C966.95649,2497.7998,972.44464,2559.58716,961.94367,2615.6189ZM710.821,2525.03638q-47.37561-11.67993-94.63208-23.82349-12.23794,55.89075-24.47809,111.78125,47.51751,13.42163,95.17645,26.32544c34.12195,10.26563,64.44537-5.41821,71.59827-40.91284C765.59482,2563.12866,746.407,2532.70093,710.821,2525.03638Zm-40.12317,287.26489q-57.54492-17.42652-114.82379-35.70044-13.02357,59.44629-26.04981,118.89209,57.60718,19.89294,115.51978,38.86841c36.848,12.541,68.87884-2.84693,76.64679-41.85889C729.6893,2853.83887,707.79325,2823.12549,670.69779,2812.30127Z" fill="#8ec33f"/>
        <path d="M1295.53157,3112.68384c62.43151,14.2268,113.78272-23.56446,121.84335-86.46192q32.37657-246.08824,64.64581-492.19018c3.0618-26.32153,17.51042-49.88526,47.6156-44.49585q55.30115,6.8291,110.66738,13.09448c30.43055,2.8125,40.3935,27.8208,36.53586,55.46338q-27.1751,246.24207-54.449,492.47339c-9.30324,86.52515-39.23323,173.0083-107.77568,228.342-68.14637,55.01392-165.19039,57.73291-248.21615,38.031-86.99781-20.64454-172.67167-69.07227-219.99341-145.66895-45.62766-73.85449-53.569-160.38916-39.90112-245.83618q39.34921-226.782,78.61026-453.5791c4.03353-26.06543,20.266-46.23682,49.0035-39.88672q55.03569,9.14832,110.16024,17.73413c29.24967,3.96533,39.61534,27.46924,34.5855,54.72241q-36.53246,239.272-73.16848,478.52808C1194.62545,3046.314,1234.33454,3098.73853,1295.53157,3112.68384Z" fill="#8ec33f"/>
        <path d="M1964.84873,2585.97241q-24.34845,305.98938-48.81793,611.96924,126.46215,14.82312,253.36749,25.18018c31.96283,2.686,43.96387,26.61792,41.61365,56.41064q-2.86588,57.423-5.73426,114.8457c-.6087,29.85962-15.89361,51.87061-47.87188,49.167q-213.01356-19.19862-424.36081-52.32422c-31.95194-3.51831-44.00864-29.56031-40.61756-58.717q38.62921-382.21216,77.03147-764.447c2.30475-26.843,16.49661-51.80664,47.34292-47.24438q55.44534,5.15076,110.93863,9.73608C1958.81986,2532.43018,1967.77488,2558.47925,1964.84873,2585.97241Z" fill="#8ec33f"/>
        <path d="M2500.96256,2613.66333q-6.94446,313.70216-13.92676,627.40356,127.359,4.00561,254.77954,3.52491c32.3136-.06153,45.45276,23.34277,44.83325,53.17187q.46143,58.00856.92359,116.01709c1.10571,30.06958-12.66577,53.62573-44.98206,53.96753q-214.10706.87231-427.86236-12.27637c-32.9607-.39648-45.78711-26.90112-44.06379-56.24023q17.20515-396.026,34.29145-792.05689c.77911-26.99462,12.85736-54.43017,44.60968-51.4602q55.60721,2.04383,111.23059,3.52124C2492.43375,2559.37061,2502.28836,2585.956,2500.96256,2613.66333Z" fill="#8ec33f"/>
        <path d="M3435.23685,2587.16113q30.33288,388.95667,60.8606,777.898c3.17065,29.58911-9.2544,54.52661-40.91309,57.79566q-60.60424,7.233-121.31763,13.45385c-17.76342,2.29639-36.50085-4.71875-45.53943-20.85864q-91.40313-141.92835-177.83093-286.949c-46.124-80.56079-75.454-167.80445-100.21789-256.90625-3.25586.125-4.88379.18676-8.13965.30835,22.18677,107.70141,40.17846,216.04443,44.82287,326.06689q3.559,103.42017,7.12391,206.84009c1.92895,30.35473-12.04224,54.73877-44.58179,55.72021q-54.53686,2.56458-109.10217,4.33252c-33.04761,2.78223-47.27881-23.00415-47.248-52.24926q-5.77662-398.80556-11.51477-797.61133c-.77283-27.00049,9.55652-55.41358,41.56994-54.19824q58.09369-1.10853,116.17078-2.84449c17.94519-1.66113,34.23242,8.10742,42.25269,24.0127q86.79327,159.2373,179.02624,315.3977c40.51611,71.21265,68.44458,148.02954,99.95166,223.41016,3.33582-.29395,5.00354-.44238,8.33875-.74024-33.27674-102.33129-58.15662-206.39111-65.51685-313.99365q-6.01959-103.07629-12.02917-206.15332c-1.926-26.52539,6.43481-55.12182,38.22534-55.22656q50.15057-3.09522,100.26941-6.65112C3420.57169,2535.98438,3433.8367,2559.41382,3435.23685,2587.16113Z" fill="#fff"/>
        <path d="M3568.64969,2523.52563q57.91736-5.28258,115.77295-11.19018c28.69531-3.73926,42.55005,18.44409,44.51953,44.3313q41.7411,381.512,83.72217,762.9978c4.00928,28.47363-7.66138,50.71582-37.15039,55.99048q-62.73925,10.83069-125.65674,20.55005c-30.32983,6.43823-45.2124-15.87818-47.09863-42.94458q-34.611-388.45716-69.01148-776.93262C3531.02152,2551.32959,3538.95829,2524.25537,3568.64969,2523.52563Z" fill="#fdfefe"/>
        <path d="M4104.58988,2442.00854c65.11621-9.07739,131.9397-5.04907,191.74389,22.50855,54.23462,24.991,98.28931,71.55884,127.20069,124.3125,14.01294,24.4082,8.40576,50.57886-15.97852,65.23193q-49.3883,32.56933-98.90967,64.93482c-24.89062,16.03711-46.47485,4.80957-58.76635-19.66529-22.1399-44.08544-67.29224-63.26611-114.91065-55.36279-30.20508,5.01319-62.08227,17.67041-79.66943,44.19092-18.3396,27.655-16.98511,64.36768-12.561,95.81763q14.84364,106.634,29.70679,213.26587c4.25855,30.71337,12.51416,66.59936,38.91675,86.1831,26.08447,19.34766,61.42456,17.73193,91.44849,10.605,49.36279-11.71753,87.13256-48.31518,94.76782-99.3501,4.029-26.92993,18.8623-50.36474,49.82251-43.7041q57.7467,8.12366,115.66235,14.88672c29.07105,1.96094,42.59985,24.51148,38.04614,52.094-21.16821,141.22045-132.84936,243.66992-267.79638,278.01513-82.96509,21.11548-179.4375,19.64014-250.77027-33.43432-72.115-53.6565-103.0122-143.13965-113.33032-229.31983q-12.81848-108.03039-25.61743-216.063c-10.416-88.7417-.251-180.96142,49.874-256.00073C3940.01151,2491.47852,4023.66092,2453.29028,4104.58988,2442.00854Z" fill="#fff"/>
        <path d="M4956.09891,2337.0249q10.34657,43.60181,20.69312,87.2041c7.4624,26.16578-6.00879,46.84522-31.79126,53.48243q-128.09473,35.83044-257.21851,67.75659,9.63135,46.43664,19.26563,92.8728,103.70288-27.65991,206.66088-57.96362c24.814-7.97241,46.64136,2.0061,51.48243,28.75586q10.26855,44.21118,20.53784,88.42236c7.4917,26.90479-6.42822,48.46338-32.36377,56.64062q-103.72925,34.88636-208.4209,66.75611,10.39746,50.0874,20.79761,100.17431,136.13708-44.21667,270.3728-93.9165c23.6936-8.844,46.48438-2.19556,50.83911,25.14136q10.47291,43.99218,20.94531,87.98462c7.55982,26.62451-7.102,48.26465-31.73169,57.96q-211.91381,87.50427-429.6604,159.55029c-27.53247,10.59522-47.86108-3.55078-52.46777-31.36474q-63.91517-340.06019-127.64917-680.15381c-5.39917-26.13184,4.593-49.47535,33.21362-53.51587q203.60193-39.04248,405.40772-86.59033C4929.97611,2299.71558,4951.18119,2310.86108,4956.09891,2337.0249Z" fill="#fff"/>
      </g>
    </g>
  </g>
</svg>
